<?xml version="1.0" encoding="UTF-8"?>
<svg
    xmlns="http://www.w3.org/2000/svg"
    viewBox="0 0 444 421"
    width="444"
    height="421"
    style="--secondary : #8AB21C; --primary: #003D65;"
>
  <style>
    /* define two variables and assign them */
    .secondary { fill: var(--secondary); }
    .primary { fill: var(--primary); }
  </style>

<path class="secondary green" d="M0 0 C7.18561976 5.92616462 13.75331867 12.59595756 20.34326172 19.16625977 C21.33313277 20.14984466 22.32318447 21.13324778 23.31340027 22.1164856 C26.52230808 25.30463913 29.72614247 28.49786562 32.9296875 31.69140625 C34.0408949 32.79855796 35.15213296 33.90567889 36.26340103 35.0127697 C41.4782084 40.20860337 46.69065431 45.40679168 51.90017211 50.60792881 C57.88997699 56.58793356 63.88800231 62.55953434 69.89301288 68.52426869 C74.55506485 73.15613023 79.20938505 77.79567086 83.8580209 82.44099659 C86.62646522 85.20709773 89.39807328 87.96983722 92.17794418 90.72445869 C94.78879515 93.3119665 97.38988358 95.90890922 99.98395729 98.51323318 C101.38388167 99.91388537 102.79367999 101.30464726 104.20381165 102.69502258 C110.95542924 109.50239389 116.04308292 116.17074773 116.3125 126.125 C116.12064933 140.68646569 104.53713385 149.61286287 94.93725586 159.20800781 C93.94084795 160.20741454 92.94464301 161.20702366 91.94862366 162.20681763 C89.26518203 164.89902393 86.57857107 167.58804495 83.89106441 170.27619267 C82.20912487 171.95884631 80.52790076 173.64221139 78.84692574 175.32582855 C72.97460725 181.20737123 67.09973923 187.08635309 61.22241211 192.96289062 C55.75496952 198.42973126 50.29314369 203.90213951 44.8338899 209.3771565 C40.13323487 214.09089735 35.42872199 218.8007643 30.72120005 223.50764728 C27.9152702 226.31332271 25.11089996 229.12051389 22.31040764 231.93161774 C19.67920734 234.57251809 17.04322338 237.20854908 14.40353966 239.84096909 C12.97961998 241.26334995 11.56063158 242.69066214 10.14181519 244.11813354 C2.71210844 251.51144992 -3.4056346 256.91928139 -14.3125 257.375 C-29.52494521 256.98441019 -39.22549246 243.9248602 -49.25146484 233.89379883 C-50.23146382 232.91680152 -51.21166406 231.94000606 -52.19204712 230.96339417 C-54.82213758 228.34203647 -57.44907374 225.71754081 -60.07512236 223.09213471 C-61.71993035 221.44804232 -63.36545035 219.80466596 -65.01121902 218.16153526 C-70.76308739 212.41887825 -76.51240834 206.67368533 -82.25927734 200.92602539 C-87.60232747 195.58237263 -92.95095326 190.24434571 -98.30217206 184.90887433 C-102.91404307 180.31008872 -107.52204045 175.7074459 -112.12705386 171.10179347 C-114.87010149 168.35849155 -117.61466104 165.61674642 -120.36314011 162.87888527 C-122.94332993 160.30839561 -125.51864925 157.73312316 -128.09035873 155.15415001 C-129.47932314 153.76364726 -130.87321769 152.37807462 -132.26727295 150.99267578 C-139.60274596 143.62024187 -144.92299328 137.5055274 -145.375 126.6875 C-144.98441019 111.47505479 -131.9248602 101.77450754 -121.89379883 91.74853516 C-120.91680152 90.76853618 -119.94000606 89.78833594 -118.96339417 88.80795288 C-116.34203647 86.17786242 -113.71754081 83.55092626 -111.09213471 80.92487764 C-109.44804232 79.28006965 -107.80466596 77.63454965 -106.16153526 75.98878098 C-100.41887825 70.23691261 -94.67368533 64.48759166 -88.92602539 58.74072266 C-83.58237263 53.39767253 -78.24434571 48.04904674 -72.90887433 42.69782794 C-68.31008872 38.08595693 -63.7074459 33.47795955 -59.10179347 28.87294614 C-56.35849155 26.12989851 -53.61674642 23.38533896 -50.87888527 20.63685989 C-48.30839561 18.05667007 -45.73312316 15.48135075 -43.15415001 12.90964127 C-41.76364726 11.52067686 -40.37807462 10.12678231 -38.99267578 8.73272705 C-27.87598939 -2.32822704 -14.85120376 -9.26807954 0 0 Z M-23.04924393 31.78918171 C-23.72177578 32.45706306 -24.39430763 33.1249444 -25.08721924 33.81306458 C-25.86674957 34.58261978 -26.64627991 35.35217499 -27.44943237 36.14505005 C-28.29015289 36.9851059 -29.13087341 37.82516174 -29.99707031 38.69067383 C-30.89352264 39.57880264 -31.78997498 40.46693146 -32.71359253 41.38197327 C-35.16453799 43.8110401 -37.60894062 46.24658714 -40.05151463 48.68406892 C-41.57873546 50.20764025 -43.10724488 51.72990672 -44.63619232 53.25174522 C-49.97248491 58.56357255 -55.30305865 63.88107016 -60.62890625 69.20336914 C-65.59034008 74.16116342 -70.56476628 79.10565675 -75.54524922 84.04430753 C-79.82512026 88.28948817 -84.09532148 92.5442362 -88.35823131 96.80644816 C-90.90263948 99.35006352 -93.45086488 101.88954655 -96.00907135 104.41929054 C-98.86024066 107.23943963 -101.69108428 110.07917679 -104.52050781 112.92114258 C-105.79373398 114.17211731 -105.79373398 114.17211731 -107.09268188 115.44836426 C-107.86093292 116.22637894 -108.62918396 117.00439362 -109.42071533 117.8059845 C-110.09173908 118.47499692 -110.76276283 119.14400934 -111.45412064 119.83329487 C-113.45676669 122.64020438 -113.89984266 124.55928423 -114 128 C-112.33439834 131.6384131 -109.98909078 134.26555226 -107.18693542 137.08721924 C-106.41738022 137.86674957 -105.64782501 138.64627991 -104.85494995 139.44943237 C-104.0148941 140.29015289 -103.17483826 141.13087341 -102.30932617 141.99707031 C-101.42119736 142.89352264 -100.53306854 143.78997498 -99.61802673 144.71359253 C-97.1889599 147.16453799 -94.75341286 149.60894062 -92.31593108 152.05151463 C-90.79235975 153.57873546 -89.27009328 155.10724488 -87.74825478 156.63619232 C-82.43642745 161.97248491 -77.11892984 167.30305865 -71.79663086 172.62890625 C-66.83883658 177.59034008 -61.89434325 182.56476628 -56.95569247 187.54524922 C-52.71051183 191.82512026 -48.4557638 196.09532148 -44.19355184 200.35823131 C-41.64993648 202.90263948 -39.11045345 205.45086488 -36.58070946 208.00907135 C-33.76056037 210.86024066 -30.92082321 213.69108428 -28.07885742 216.52050781 C-27.24487427 217.36932526 -26.41089111 218.2181427 -25.55163574 219.09268188 C-24.38461372 220.24505844 -24.38461372 220.24505844 -23.1940155 221.42071533 C-22.19049687 222.42725096 -22.19049687 222.42725096 -21.16670513 223.45412064 C-18.35979562 225.45676669 -16.44071577 225.89984266 -13 226 C-9.3615869 224.33439834 -6.73444774 221.98909078 -3.91278076 219.18693542 C-3.13325043 218.41738022 -2.35372009 217.64782501 -1.55056763 216.85494995 C-0.70984711 216.0148941 0.13087341 215.17483826 0.99707031 214.30932617 C1.89352264 213.42119736 2.78997498 212.53306854 3.71359253 211.61802673 C6.16453799 209.1889599 8.60894062 206.75341286 11.05151463 204.31593108 C12.57873546 202.79235975 14.10724488 201.27009328 15.63619232 199.74825478 C20.97248491 194.43642745 26.30305865 189.11892984 31.62890625 183.79663086 C36.59034008 178.83883658 41.56476628 173.89434325 46.54524922 168.95569247 C50.82512026 164.71051183 55.09532148 160.4557638 59.35823131 156.19355184 C61.90263948 153.64993648 64.45086488 151.11045345 67.00907135 148.58070946 C69.86024066 145.76056037 72.69108428 142.92082321 75.52050781 140.07885742 C76.36932526 139.24487427 77.2181427 138.41089111 78.09268188 137.55163574 C79.24505844 136.38461372 79.24505844 136.38461372 80.42071533 135.1940155 C81.42725096 134.19049687 81.42725096 134.19049687 82.45412064 133.16670513 C84.45676669 130.35979562 84.89984266 128.44071577 85 125 C83.33439834 121.3615869 80.98909078 118.73444774 78.18693542 115.91278076 C77.41738022 115.13325043 76.64782501 114.35372009 75.85494995 113.55056763 C75.0148941 112.70984711 74.17483826 111.86912659 73.30932617 111.00292969 C72.42119736 110.10647736 71.53306854 109.21002502 70.61802673 108.28640747 C68.1889599 105.83546201 65.75341286 103.39105938 63.31593108 100.94848537 C61.79235975 99.42126454 60.27009328 97.89275512 58.74825478 96.36380768 C53.43642745 91.02751509 48.11892984 85.69694135 42.79663086 80.37109375 C37.83883658 75.40965992 32.89434325 70.43523372 27.95569247 65.45475078 C23.71051183 61.17487974 19.4557638 56.90467852 15.19355184 52.64176869 C12.64993648 50.09736052 10.11045345 47.54913512 7.58070946 44.99092865 C4.76056037 42.13975934 1.92082321 39.30891572 -0.92114258 36.47949219 C-2.17211731 35.20626602 -2.17211731 35.20626602 -3.44836426 33.90731812 C-4.22637894 33.13906708 -5.00439362 32.37081604 -5.8059845 31.57928467 C-6.47499692 30.90826092 -7.14400934 30.23723717 -7.83329487 29.54587936 C-13.85919914 25.24657674 -17.98303141 27.3659041 -23.04924393 31.78918171 Z " fill="#8AB21C" transform="translate(236,83)"/>
<path class="primary cicle" d="M0 0 C13.01135904 11.2451112 19.78769679 23.97610999 21.49609375 41.12109375 C22.1147328 55.09202561 17.02813187 68.75144002 7.96484375 79.23828125 C-3.4487342 91.10840232 -16.43624581 97.50327415 -33.03515625 98.23828125 C-49.18485445 97.74802255 -62.63011611 91.48051057 -73.72265625 79.92578125 C-83.39710233 69.49551907 -88.40133397 55.6756063 -87.96875 41.42578125 C-86.22102844 23.67114956 -78.99984363 10.53649672 -65.41015625 -0.88671875 C-46.15343275 -15.08645921 -18.9147778 -14.40996702 0 0 Z " fill="#003D65" transform="translate(254.72265625,166.07421875)"/>
<path class="primary blue1" d="M0 0 C0.14547545 4.06212212 0.23413226 8.12357287 0.3125 12.1875 C0.35439453 13.33798828 0.39628906 14.48847656 0.43945312 15.67382812 C0.50932912 20.4952716 0.5415338 23.96616275 -1.71875 28.28125 C-6.94256092 31.01753191 -12.01994731 30.52343329 -17.8125 30.3125 C-18.98232422 30.28994141 -20.15214844 30.26738281 -21.35742188 30.24414062 C-24.23958769 30.18532091 -27.11913681 30.10317141 -30 30 C-24.95241573 23.85397771 -19.40441039 18.25128263 -13.77563477 12.64526367 C-12.17019485 11.04525338 -10.57025692 9.4398769 -8.97070312 7.83398438 C-7.95344609 6.81738694 -6.93587953 5.8010991 -5.91796875 4.78515625 C-4.99781982 3.86613525 -4.0776709 2.94711426 -3.12963867 2.00024414 C-1 0 -1 0 0 0 Z " fill="#003D65" transform="translate(326,284)"/>
<path class="primary blue1" d="M0 0 C6.14602229 5.04758427 11.74871737 10.59558961 17.35473633 16.22436523 C18.95474662 17.82980515 20.5601231 19.42974308 22.16601562 21.02929688 C23.18261306 22.04655391 24.1989009 23.06412047 25.21484375 24.08203125 C26.13386475 25.00218018 27.05288574 25.9223291 27.99975586 26.87036133 C30 29 30 29 30 30 C25.93787788 30.14547545 21.87642713 30.23413226 17.8125 30.3125 C16.66201172 30.35439453 15.51152344 30.39628906 14.32617188 30.43945312 C9.5047284 30.50932912 6.03383725 30.5415338 1.71875 28.28125 C-1.01753191 23.05743908 -0.52343329 17.98005269 -0.3125 12.1875 C-0.28994141 11.01767578 -0.26738281 9.84785156 -0.24414062 8.64257812 C-0.18532091 5.76041231 -0.10317141 2.88086319 0 0 Z " fill="#003D65" transform="translate(117,284)"/>
<path class="primary blue1" d="M0 0 C4.06212212 -0.14547545 8.12357287 -0.23413226 12.1875 -0.3125 C13.91323242 -0.3753418 13.91323242 -0.3753418 15.67382812 -0.43945312 C20.4952716 -0.50932912 23.96616275 -0.5415338 28.28125 1.71875 C31.01753191 6.94256092 30.52343329 12.01994731 30.3125 17.8125 C30.28994141 18.98232422 30.26738281 20.15214844 30.24414062 21.35742188 C30.18532091 24.23958769 30.10317141 27.11913681 30 30 C23.85397771 24.95241573 18.25128263 19.40441039 12.64526367 13.77563477 C11.04525338 12.17019485 9.4398769 10.57025692 7.83398438 8.97070312 C6.81738694 7.95344609 5.8010991 6.93587953 4.78515625 5.91796875 C3.86613525 4.99781982 2.94711426 4.0776709 2.00024414 3.12963867 C0 1 0 1 0 0 Z " fill="#003D65" transform="translate(296,105)"/>
<path class="primary blue1" d="M0 0 C1.16982422 0.02255859 2.33964844 0.04511719 3.54492188 0.06835938 C6.42708769 0.12717909 9.30663681 0.20932859 12.1875 0.3125 C7.13991573 6.45852229 1.59191039 12.06121737 -4.03686523 17.66723633 C-5.64230515 19.26724662 -7.24224308 20.8726231 -8.84179688 22.47851562 C-9.85905391 23.49511306 -10.87662047 24.5114009 -11.89453125 25.52734375 C-12.81468018 26.44636475 -13.7348291 27.36538574 -14.68286133 28.31225586 C-16.8125 30.3125 -16.8125 30.3125 -17.8125 30.3125 C-17.95797545 26.25037788 -18.04663226 22.18892713 -18.125 18.125 C-18.16689453 16.97451172 -18.20878906 15.82402344 -18.25195312 14.63867188 C-18.32182912 9.8172284 -18.3540338 6.34633725 -16.09375 2.03125 C-10.86993908 -0.70503191 -5.79255269 -0.21093329 0 0 Z " fill="#003D65" transform="translate(134.8125,104.6875)"/>
<path class="primary blue2" d="M0 0 C29.06685923 -5.13451479 29.06685923 -5.13451479 40.49090576 1.43170166 C50.32694242 8.51814549 58.50213162 18.08387585 66.03282166 27.51594543 C70.71212694 33.24979009 75.72364023 36.45368998 83 38 C89.81960702 38.53487114 95.73076476 37.46070707 101.24975586 33.30664062 C106.09824135 28.98068884 110.30088137 24.50420446 114.328125 19.43359375 C130.21486634 -0.00691208 130.21486634 -0.00691208 142.51196289 -1.50883484 C152.70139899 -2.21443607 162.89719913 -1.35527334 173 0 C171.46202807 3.64431201 169.27484712 5.97857225 166.49365234 8.76513672 C166.03803925 9.22425446 165.58242615 9.68337219 165.11300659 10.15640259 C163.60896702 11.66922552 162.09775008 13.17463527 160.5859375 14.6796875 C159.5314968 15.73547675 158.47735304 16.79156263 157.42349243 17.84793091 C155.21248775 20.06188305 152.99791059 22.27218193 150.78076172 24.47998047 C147.95651313 27.29289075 145.14126445 30.11460929 142.3286953 32.93919182 C140.15142976 35.12373409 137.96936125 37.30342908 135.78587723 39.4817543 C134.74713456 40.51917357 133.70984553 41.55805066 132.67411423 42.59847641 C119.38680065 55.93273864 106.06652998 65.83732952 86.5 66.375 C72.13300533 65.96402518 59.812058 60.9943589 49.453125 51.09765625 C48.81757187 50.49717468 48.18201874 49.89669312 47.52720642 49.27801514 C38.99982962 41.17019375 30.67070801 32.85674769 22.35131836 24.53662109 C19.99170442 22.17886626 17.62716473 19.82628522 15.26002598 17.47610092 C12.98270224 15.21248136 10.71248188 12.94176058 8.44140625 10.671875 C7.59163712 9.82929138 6.74186798 8.98670776 5.86634827 8.11859131 C5.09391281 7.34307922 4.32147736 6.56756714 3.52563477 5.76855469 C2.84251724 5.08686218 2.15939972 4.40516968 1.45558167 3.70281982 C0 2 0 2 0 0 Z " fill="#003C63" transform="translate(135,339)"/>
<path class="primary blue2" d="M0 0 C3.64431201 1.53797193 5.97857225 3.72515288 8.76513672 6.50634766 C9.45381332 7.1897673 9.45381332 7.1897673 10.15640259 7.88699341 C11.66922552 9.39103298 13.17463527 10.90224992 14.6796875 12.4140625 C15.73547675 13.4685032 16.79156263 14.52264696 17.84793091 15.57650757 C20.06188305 17.78751225 22.27218193 20.00208941 24.47998047 22.21923828 C27.29289075 25.04348687 30.11460929 27.85873555 32.93919182 30.6713047 C35.12373409 32.84857024 37.30342908 35.03063875 39.4817543 37.21412277 C40.51917357 38.25286544 41.55805066 39.29015447 42.59847641 40.32588577 C55.93273864 53.61319935 65.83732952 66.93347002 66.375 86.5 C65.96402518 100.86699467 60.9943589 113.187942 51.09765625 123.546875 C50.49717468 124.18242813 49.89669312 124.81798126 49.27801514 125.47279358 C41.17019375 134.00017038 32.85674769 142.32929199 24.53662109 150.64868164 C22.17886626 153.00829558 19.82628522 155.37283527 17.47610092 157.73997402 C15.21248136 160.01729776 12.94176058 162.28751812 10.671875 164.55859375 C9.82929138 165.40836288 8.98670776 166.25813202 8.11859131 167.13365173 C6.95532318 168.29230492 6.95532318 168.29230492 5.76855469 169.47436523 C5.08686218 170.15748276 4.40516968 170.84060028 3.70281982 171.54441833 C2 173 2 173 0 173 C-5.13451479 143.93314077 -5.13451479 143.93314077 1.43170166 132.50909424 C8.51814549 122.67305758 18.08387585 114.49786838 27.51594543 106.96717834 C33.24979009 102.28787306 36.45368998 97.27635977 38 90 C38.53487114 83.18039298 37.46070707 77.26923524 33.30664062 71.75024414 C28.98068884 66.90175865 24.50420446 62.69911863 19.43359375 58.671875 C-0.00691208 42.78513366 -0.00691208 42.78513366 -1.50883484 30.48803711 C-2.21443607 20.29860101 -1.35527334 10.10280087 0 0 Z " fill="#003C63" transform="translate(351,123)"/>
<path class="primary blue2" d="M0 0 C5.13451479 29.06685923 5.13451479 29.06685923 -1.43170166 40.49090576 C-8.51814549 50.32694242 -18.08387585 58.50213162 -27.51594543 66.03282166 C-33.24979009 70.71212694 -36.45368998 75.72364023 -38 83 C-38.53487114 89.81960702 -37.46070707 95.73076476 -33.30664062 101.24975586 C-28.98068884 106.09824135 -24.50420446 110.30088137 -19.43359375 114.328125 C0.00691208 130.21486634 0.00691208 130.21486634 1.50883484 142.51196289 C2.21443607 152.70139899 1.35527334 162.89719913 0 173 C-3.64431201 171.46202807 -5.97857225 169.27484712 -8.76513672 166.49365234 C-9.22425446 166.03803925 -9.68337219 165.58242615 -10.15640259 165.11300659 C-11.66922552 163.60896702 -13.17463527 162.09775008 -14.6796875 160.5859375 C-15.73547675 159.5314968 -16.79156263 158.47735304 -17.84793091 157.42349243 C-20.06188305 155.21248775 -22.27218193 152.99791059 -24.47998047 150.78076172 C-27.29289075 147.95651313 -30.11460929 145.14126445 -32.93919182 142.3286953 C-35.12373409 140.15142976 -37.30342908 137.96936125 -39.4817543 135.78587723 C-40.51917357 134.74713456 -41.55805066 133.70984553 -42.59847641 132.67411423 C-55.93273864 119.38680065 -65.83732952 106.06652998 -66.375 86.5 C-65.96402518 72.13300533 -60.9943589 59.812058 -51.09765625 49.453125 C-50.49717468 48.81757187 -49.89669312 48.18201874 -49.27801514 47.52720642 C-41.17019375 38.99982962 -32.85674769 30.67070801 -24.53662109 22.35131836 C-22.17886626 19.99170442 -19.82628522 17.62716473 -17.47610092 15.26002598 C-15.21248136 12.98270224 -12.94176058 10.71248188 -10.671875 8.44140625 C-9.82929138 7.59163712 -8.98670776 6.74186798 -8.11859131 5.86634827 C-7.34307922 5.09391281 -6.56756714 4.32147736 -5.76855469 3.52563477 C-5.08686218 2.84251724 -4.40516968 2.15939972 -3.70281982 1.45558167 C-2 0 -2 0 0 0 Z " fill="#003C63" transform="translate(92,123)"/>
<path class="primary blue2" d="M0 0 C2.28665562 1.86073145 4.41592457 3.86647936 6.546875 5.90234375 C7.18242813 6.50282532 7.81798126 7.10330688 8.47279358 7.72198486 C17.00017038 15.82980625 25.32929199 24.14325231 33.64868164 32.46337891 C36.00829558 34.82113374 38.37283527 37.17371478 40.73997402 39.52389908 C43.01729776 41.78751864 45.28751812 44.05823942 47.55859375 46.328125 C48.40836288 47.17070862 49.25813202 48.01329224 50.13365173 48.88140869 C50.90608719 49.65692078 51.67852264 50.43243286 52.47436523 51.23144531 C53.15748276 51.91313782 53.84060028 52.59483032 54.54441833 53.29718018 C56 55 56 55 56 57 C26.93314077 62.13451479 26.93314077 62.13451479 15.50909424 55.56829834 C5.67305758 48.48185451 -2.50213162 38.91612415 -10.03282166 29.48405457 C-14.71212694 23.75020991 -19.72364023 20.54631002 -27 19 C-33.81960702 18.46512886 -39.73076476 19.53929293 -45.24975586 23.69335938 C-50.09824135 28.01931116 -54.30088137 32.49579554 -58.328125 37.56640625 C-74.21486634 57.00691208 -74.21486634 57.00691208 -86.51196289 58.50883484 C-96.70139899 59.21443607 -106.89719913 58.35527334 -117 57 C-115.46202807 53.35568799 -113.27484712 51.02142775 -110.49365234 48.23486328 C-110.03803925 47.77574554 -109.58242615 47.31662781 -109.11300659 46.84359741 C-107.60896702 45.33077448 -106.09775008 43.82536473 -104.5859375 42.3203125 C-103.5314968 41.26452325 -102.47735304 40.20843737 -101.42349243 39.15206909 C-99.21248775 36.93811695 -96.99791059 34.72781807 -94.78076172 32.52001953 C-91.95651313 29.70710925 -89.14126445 26.88539071 -86.3286953 24.06080818 C-84.15142976 21.87626591 -81.96936125 19.69657092 -79.78587723 17.5182457 C-78.74713456 16.48082643 -77.70984553 15.44194934 -76.67411423 14.40152359 C-55.26755744 -7.08066994 -27.94178975 -17.95259991 0 0 Z " fill="#003C63" transform="translate(252,23)"/>
</svg>
