<?xml version="1.0" encoding="UTF-8"?>
<svg xmlns="http://www.w3.org/2000/svg"
     viewBox="0 0 1480 180" width="1480" height="180"
     style="--main-color: #003E66;">
  <style>
    path { fill: #003E66; }
  </style>
  <!-- paths repositioned with 10 u padding around the tight bounds of the originals -->
  <path d="M0 0 C11.55 0 23.1 0 35 0 C44.13317272 10.45783136 44.13317272 10.45783136 46.07421875 15.41015625 C48.92070229 22.07002408 52.55331539 28.0380887 56.43057251 34.12261963 C58.12288276 36.79676247 59.76041963 39.50411599 61.40625 42.20703125 C64.48765082 47.21925631 67.68862392 52.13699449 71 57 C74.81109472 51.36563994 78.5055379 45.67017105 82.09277344 39.890625 C83.3611712 37.86011423 84.64809418 35.84109559 85.95019531 33.83203125 C90.06716066 27.41962857 93.47880286 21.1052498 96.31176758 14.02368164 C99.14446377 8.87387636 103.23733493 4.51519808 107 0 C118.55 0 130.1 0 142 0 C142 46.53 142 93.06 142 141 C131.44 141 120.88 141 110 141 C109.67 111.96 109.34 82.92 109 53 C105.7 58.28 102.4 63.56 99 69 C97.14352206 71.85803578 95.28417751 74.70543754 93.38671875 77.53515625 C92.9244136 78.22838486 92.46210846 78.92161346 91.98579407 79.635849 C91.0319189 81.06518188 90.07695249 82.49378717 89.12084961 83.92163086 C87.66833378 86.09112692 86.21966471 88.26315494 84.77148438 90.43554688 C83.83094867 91.84389662 82.89020137 93.25210507 81.94921875 94.66015625 C81.52517258 95.2956691 81.1011264 95.93118195 80.66423035 96.58595276 C77.85265892 100.78131711 74.95183852 104.90203361 72 109 C68.68022597 108.40887829 68.17320792 108.23581319 66.0546875 105.3515625 C65.31772979 104.11551388 64.59215765 102.87264088 63.875 101.625 C59.09777633 93.64545126 53.99719958 85.90503282 48.8125 78.1875 C47.66414161 76.47802772 46.51604073 74.76838923 45.36927795 73.05784607 C44.34378592 71.52869292 43.31614156 70.00098378 42.28833008 68.47338867 C39.13458083 63.68640579 36.07762861 58.83627353 33 54 C32.67 82.71 32.34 111.42 32 141 C21.44 141 10.88 141 0 141 C0 94.47 0 47.94 0 0 Z"
        fill="#003E66"
        transform="translate(556.00,26.32)"/>
  <path d="M0 0 C3.70174334 2.98478331 7.0003517 6.26156431 10.25927734 9.72021484 C11.00822266 10.51169922 11.75716797 11.30318359 12.52880859 12.11865234 C26.37601954 28.05750701 29.38268683 47.45103548 28.46630859 67.90917969 C27.03906809 87.28800895 16.22490002 104.23357302 1.81787109 116.68896484 C-8.429803 124.82452291 -20.77169303 129.98046697 -33.74072266 131.72021484 C-34.68947266 131.85427734 -35.63822266 131.98833984 -36.61572266 132.12646484 C-58.22612186 134.50360876 -79.37581029 128.81794298 -96.55322266 115.40771484 C-110.63104394 103.24774168 -120.06470632 85.66944384 -121.61181641 67.00537109 C-121.65435547 66.25126953 -121.69689453 65.49716797 -121.74072266 64.72021484 C-121.79357422 63.91455078 -121.84642578 63.10888672 -121.90087891 62.27880859 C-122.59045277 42.16124053 -115.29383085 24.11704411 -102.39306641 8.96240234 C-76.88590909 -18.16228202 -30.02758796 -22.07638374 0 0 Z M-73.74072266 25.72021484 C-74.35560547 26.24486328 -74.97048828 26.76951172 -75.60400391 27.31005859 C-83.064169 34.09928807 -87.53635697 43.83147977 -88.07666016 53.91943359 C-88.36563265 68.27438017 -85.76991774 80.06373889 -75.74072266 90.87646484 C-66.26951771 99.94176101 -55.94910778 103.07602436 -43.08447266 102.93115234 C-32.30836031 102.25135086 -22.79553433 97.29366401 -15.42822266 89.47021484 C-6.35293233 78.56153253 -3.5476999 66.69349384 -4.74072266 52.72021484 C-7.16355832 40.5922704 -12.42570405 29.87682952 -22.74072266 22.72021484 C-39.12255137 13.05056399 -59.07889169 12.28829464 -73.74072266 25.72021484 Z"
        fill="#003E66"
        transform="translate(251.74,37.60)"/>
  <path d="M0 0 C10.56 0 21.12 0 32 0 C32.0093457 2.56740967 32.01869141 5.13481934 32.02832031 7.7800293 C32.06223482 16.30570147 32.11786339 24.83113527 32.18390274 33.35661602 C32.22324852 38.52071507 32.25549991 43.68464689 32.27099609 48.84887695 C32.28624808 53.84172712 32.32084345 58.83411712 32.36830902 63.82676125 C32.38303527 65.72228791 32.39103593 67.6178803 32.39188385 69.51346397 C32.2791349 89.04425032 32.2791349 89.04425032 41 106 C48.7772564 112.18014125 57.21688379 113.91902001 67 113 C75.33889052 111.61018491 81.21635734 108.0223352 86.3125 101.2578125 C92.79354035 90.15426543 91.33088891 74.36084492 91.4140625 61.9140625 C91.43281902 60.11802323 91.45239559 58.32199236 91.4727478 56.52597046 C91.52360211 51.84742229 91.56347457 47.16884569 91.60089111 42.49017334 C91.64122724 37.69650514 91.69218291 32.90295037 91.7421875 28.109375 C91.83839221 18.73965595 91.92198631 9.36988818 92 0 C102.23 0 112.46 0 123 0 C123.09080498 11.84935094 123.16400492 23.69846622 123.20724869 35.54808807 C123.22801613 41.05188551 123.25613296 46.55543007 123.30175781 52.05908203 C123.34560567 57.38242536 123.36921836 62.70552732 123.37950897 68.02903748 C123.3868311 70.04776299 123.40112677 72.06647711 123.42292023 74.08509827 C123.62602027 93.69892025 121.46979105 113.02997684 107.26171875 127.96875 C91.34110608 142.26705499 72.46114562 143.93703549 52.00195312 143.1953125 C37.76468438 142.26901004 23.71143966 136.70114052 14 126 C0.54887244 108.50510966 -0.31344015 89.34022036 -0.1953125 68.26171875 C-0.1915745 66.28489832 -0.18873125 64.30807601 -0.18673706 62.33125305 C-0.17916255 57.17089576 -0.15956837 52.01065399 -0.1373291 46.8503418 C-0.11673625 41.56756147 -0.10770682 36.28476216 -0.09765625 31.00195312 C-0.07631564 20.66791022 -0.04118513 10.33398289 0 0 Z"
        fill="#003E66"
        transform="translate(415.00,26.32)"/>

<path d="M0 0 C38.61 0 77.22 0 117 0 C117 9.57 117 19.14 117 29 C103.14 29 89.28 29 75 29 C75 65.96 75 102.92 75 141 C64.44 141 53.88 141 43 141 C43 104.04 43 67.08 43 29 C28.81 29 14.62 29 0 29 C0 19.43 0 9.86 0 0 Z"
      fill="#003E66"
      transform="translate(282.00,26.32)"/>
<path d="M0 0 C38.61 0 77.22 0 117 0 C117 9.57 117 19.14 117 29 C103.14 29 89.28 29 75 29 C75 65.96 75 102.92 75 141 C64.44 141 53.88 141 43 141 C43 104.04 43 67.08 43 29 C28.81 29 14.62 29 0 29 C0 19.43 0 9.86 0 0 Z"
      fill="#003E66"
      transform="translate(10.00,26.32)"/>
<path d="M0 0 C17.69625 -0.0928125 17.69625 -0.0928125 35.75 -0.1875 C39.45186523 -0.21481201 43.15373047 -0.24212402 46.96777344 -0.27026367 C51.54736328 -0.28381348 51.54736328 -0.28381348 53.70269775 -0.28633118 C55.18303141 -0.29088718 56.66335512 -0.30133079 58.14361572 -0.31672668 C74.58361305 -0.47891627 91.04185034 2.16428732 103.5625 13.8125 C111.94896836 23.078919 114.45040249 34.07079806 114.24609375 46.28125 C113.59550261 56.11240503 109.7875035 65.20409737 102.7734375 72.23046875 C94.91013884 78.88306905 86.36980127 83.41303012 76 84 C82.50662835 93.17394183 89.41894836 102.01409873 96.34277344 110.87402344 C99.36260598 114.74802193 102.34736058 118.64873119 105.3359375 122.546875 C107.45153554 125.2979821 109.58717589 128.0329812 111.7265625 130.765625 C112.37109375 131.58998047 113.015625 132.41433594 113.6796875 133.26367188 C114.96150858 134.90198336 116.24531648 136.53874257 117.53125 138.17382812 C118.40136719 139.28661133 118.40136719 139.28661133 119.2890625 140.421875 C119.81193848 141.08799805 120.33481445 141.75412109 120.87353516 142.44042969 C122 144 122 144 122 145 C105.09531766 147.83115922 105.09531766 147.83115922 98.84082031 143.50732422 C94.73493897 139.35384765 91.67540515 134.45834487 88.60742188 129.51464844 C86.07000901 125.54512346 83.15713644 121.88969614 80.25 118.1875 C79.17747947 116.78684424 78.10711789 115.38453233 77.0390625 113.98046875 C74.2417469 110.31462465 71.43635346 106.65508716 68.625 103 C67.89539062 102.05125 67.16578125 101.1025 66.4140625 100.125 C65.61742187 99.09375 64.82078125 98.0625 64 97 C63.45122192 95.84286499 63.45122192 95.84286499 62.89135742 94.66235352 C61.19335453 91.60389343 59.9039346 89.99861492 57 88 C50.23716189 86.3275766 42.96235247 86.83872801 36.0625 86.9375 C29.441875 86.958125 22.82125 86.97875 16 87 C16 106.14 16 125.28 16 145 C10.72 145 5.44 145 0 145 C0 97.15 0 49.3 0 0 Z M16 15 C16 33.81 16 52.62 16 72 C29.055625 72.0928125 29.055625 72.0928125 42.375 72.1875 C45.10313965 72.21481201 47.8312793 72.24212402 50.64208984 72.27026367 C52.83170124 72.27903476 55.02131757 72.28667722 57.2109375 72.29296875 C58.32573486 72.30831665 59.44053223 72.32366425 60.58911133 72.33947754 C71.65602647 72.34314127 81.12387017 69.81013409 90 63 C95.68212334 57.11829786 98.26530553 50.9747997 98.4375 42.75 C98.301845 35.31441016 96.32030287 29.81489201 91.42578125 24.19140625 C84.42957521 17.65182802 75.73227230 14.86579203 66.29205234 14.88647461 C65.15545282 14.88659546 64.01905054 14.88671631 62.84826698 14.88684082 C61.66470528 14.89195657 60.48114502 14.89707279 59.26171875 14.90234375 C58.16589317 14.90335073 57.07007027 14.90435791 55.94104004 14.90539551 C51.85651356 14.91061807 47.77200699 14.92457962 43.6875 14.9375 C34.55062485 14.958125 25.41375015 14.97875 16 15 Z"
      fill="#003E66"
      transform="translate(877.00,24.32)"/>
<path d="M0 0 C15.44857064 12.95763832 24.53823538 29.08480792 27.51953125 49.11328125 C29.33832952 71.26772809 25.31690675 91.64384411 11.64453125 109.55078125 C-1.01191356 124.16567013 -16.43526744 132.89881713 -35.60546875 135.86328125 C-58.05222032 137.31145877 -78.02701304 132.35225401 -95.3359375 117.6953125 C-110.07455578 103.6702128 -118.31233531 84.24406351 -118.95581055 64.00561523 C-119.14072717 42.78414386 -113.37712898 22.80406491 -98.48046875 7.11328125 C-72.50294286 -19.07787561 -29.4490898 -22.89526601 0 0 Z M-86.69921875 17.359375 C-98.15213069 30.77249687 -103.24606219 46.75115149 -102.828125 64.25 C-101.13106944 83.1082916 -93.18855657 97.88509573 -79.0390625 110.24609375 C-67.2562104 119.21426125 -52.98073635 121.9895802 -38.48046875 121.11328125 C-24.15290301 119.09296474 -10.7390319 111.94723235 -1.5546875 100.76953125 C9.13146601 86.30775605 13.87006169 68.91345032 11.21044922 51.03564453 C7.99205923 33.5708437 -0.16596169 19.92813289 -14.29296875 9.17578125 C-37.27191677 -5.86164233 -67.5937788 -1.98151931 -86.69921875 17.359375 Z"
      fill="#003E66"
      transform="translate(1125.48,36.21)"/>
<path d="M0 0 C-0.5647301 3.90829085 -2.42131971 5.89920223 -5.0625 8.75 C-6.16271484 9.94882812 -6.16271484 9.94882812 -7.28515625 11.171875 C-7.85105469 11.77515625 -8.41695312 12.3784375 -9 13 C-12.15568555 11.53743341 -14.8249781 9.74419361 -17.625 7.6875 C-31.70080874 -2.167615 -47.09312601 -5.85983496 -64.2421875 -3.56640625 C-77.72080232 -0.96441946 -89.77356568 5.8418218 -98 17 C-105.50311326 28.76881165 -109.58775315 41.25022207 -109.4375 55.25 C-109.42992676 56.24999023 -109.42235352 57.24998047 -109.41455078 58.28027344 C-109.05043381 74.78513768 -103.78923486 88.72452889 -92.34765625 100.77734375 C-80.99301172 111.52741486 -65.79082341 115.53888446 -50.42578125 115.25 C-40.13350125 114.49891001 -30.15420199 111.7848812 -21 107 C-20.23453857 106.71640625 -19.46907715 106.4328125 -18.68041992 106.140625 C-15.684203 104.73301029 -14.05487688 103.62271758 -12 101 C-10.70103675 94.84248575 -10.83522585 88.90280347 -10.9375 82.625 C-10.958125 76.80875 -10.97875 70.9925 -11 65 C-26.51 65 -42.02 65 -58 65 C-58 60.05 -58 55.1 -58 50 C-37.54 50 -17.08 50 4 50 C4.20625 59.57 4.4125 69.14 4.625 79 C4.71604004 82.00738281 4.80708008 85.01476562 4.90087891 88.11328125 C4.93010109 90.51297552 4.95557953 92.91271955 4.9765625 95.3125 C5.02772217 96.54548828 5.07888184 97.77847656 5.13159180 99.04882812 C5.14028616 107.65972739 5.14028616 107.65972739 1.83589172 111.54365540 C-0.69033563 113.59310087 -3.20925843 115.33393398 -6 117 C-6.64033676 117.41875900 -7.28067352 117.83751801 -7.94041443 118.26896667 C-19.28576107 125.43675344 -33.51136952 130.66753376 -47 131 C-47.97968750 131.03867187 -48.95937500 131.07734375 -49.96875000 131.11718750 C-69.71289726 131.54027637 -88.77344192 126.34713406 -103.87500000 113.18750000 C-117.68801881 99.89572718 -126.22129497 81.23062845 -127 62 C-127.03996094 61.10281250 -127.07992188 60.20562500 -127.12109375 59.28125000 C-127.59065797 38.28896710 -121.27923579 18.75833062 -107.60937500 2.70312500 C-77.86893683 -28.10583191 -31.99534935 -26.12180696 0 0 Z"
      fill="#003E66"
      transform="translate(846.00,41.32)"/>
<path d="M0 0 C81.46146022 0 81.46146022 0 96.8125 14.125 C106.97921071 24.87579463 108.40069222 36.05066815 108.20703125 50.06640625 C107.87106507 61.08321134 103.57992694 70.49497140 95.671875 78.29687500 C82.49953720 89.31524561 67.46411202 93.18950969 50.57031250 93.09765625 C49.69173584 93.09664917 48.81315918 93.09564209 47.90795898 93.09460449 C44.64695925 93.08939882 41.38597822 93.07543766 38.12500000 93.06250000 C30.82375000 93.04187500 23.52250000 93.02125000 16.00000000 93.00000000 C16 110.16 16 127.32 16 145 C10.72 145 5.44 145 0 145 C0 97.15 0 49.30 0 0 Z M16 15 C16 35.79 16 56.58 16 78 C26.73531250 78.12375000 26.73531250 78.12375000 37.68750000 78.25000000 C39.91846436 78.28641602 42.14942871 78.32283203 44.44799805 78.36035156 C58.91922589 78.49775551 72.89892599 77.71496784 83.93359375 67.14843750 C89.59161055 61.05518864 93.01479553 54.49263628 93.00000000 46.00000000 C92.09704430 37.31678216 89.90193369 28.88560499 83.00000000 23.00000000 C72.88380972 16.95618788 64.44335623 14.68579200 52.81640625 14.80468750 C51.87986206 14.80670166 50.94331787 14.80871582 49.97839355 14.81079102 C46.50637865 14.82119258 43.03443399 14.84911483 39.56250000 14.87500000 C31.78687500 14.91625000 24.01125000 14.95750000 16.00000000 15.00000000 Z"
      fill="#003E66"
      transform="translate(1320.00,24.32)"/>
<path d="M0 0 C5.28 0 10.56 0 16 0 C16.00364563 1.14432999 16.00729126 2.28865997 16.01104736 3.46766663 C16.04816220 14.30895936 16.10611319 25.14997237 16.18390274 35.99105167 C16.22323047 41.56313735 16.25549064 47.13506846 16.27099609 52.70727539 C16.28626005 58.09563315 16.32087625 63.48356555 16.36830902 68.87173271 C16.38302307 70.91632810 16.39103521 72.96098425 16.39188385 75.00563240 C16.40542469 91.28749455 17.08572019 106.85831614 28.00000000 120.00000000 C36.73468375 128.52077312 48.35692980 131.80233652 60.31250000 132.31250000 C72.03997985 131.97562446 82.89215363 128.79595078 91.68750000 120.93750000 C105.83466152 105.86912797 104.13954932 84.35811747 104.31640625 65.23437500 C104.33701978 63.34580069 104.35801726 61.45723054 104.37937927 59.56866455 C104.43414633 54.63689576 104.48375251 49.70508852 104.53222656 44.77325439 C104.58277635 39.72510422 104.63828631 34.67700874 104.69335938 29.62890625 C104.80038464 19.75265107 104.90194927 9.87634807 105.00000000 0.00000000 C109.95000000 0 114.90000000 0 120.00000000 0.00000000 C120.09315313 12.24044816 120.16399331 24.48081038 120.20724869 36.72154236 C120.22802116 42.40693791 120.25614757 48.09208890 120.30175781 53.77734375 C120.34558721 59.27575037 120.36921461 64.77392346 120.37950897 70.27249146 C120.38683433 72.35820180 120.40113677 74.44390105 120.42292023 76.52951050 C120.62849026 97.04878922 118.32204612 116.23757204 103.40625000 131.75000000 C90.30825761 143.99747340 74.78337023 147.88368464 57.29687500 148.03125000 C41.35535079 147.31638344 25.82721470 142.16715931 14.80468750 130.20703125 C4.05728972 117.06356860 -0.18369946 102.33199871 -0.11352539 85.48461914 C-0.11367142 84.55700775 -0.11381744 83.62939636 -0.11396790 82.67367554 C-0.11327485 79.62747811 -0.10551105 76.58134291 -0.09765625 73.53515625 C-0.09578991 71.41523777 -0.09436703 69.29531885 -0.09336853 67.17539978 C-0.08956038 61.61057330 -0.07974467 56.04577315 -0.06866455 50.48095703 C-0.05841379 44.79655310 -0.05386307 39.11214489 -0.04882812 33.42773438 C-0.03812083 22.28514472 -0.02106491 11.14257455 0.00000000 0.00000000 Z"
      fill="#003E66"
      transform="translate(1174.00,24.32)"/>
<path d="M0 0 C4.15322765 4.26252312 5.83581806 7.96414393 6.31250000 13.87500000 C6.14656733 19.38189032 4.22976894 23.45400476 0.81250000 27.75000000 C-3.98079796 31.58463837 -8.43622220 33.36467153 -14.62500000 32.93750000 C-19.99733031 32.07755728 -23.34044068 29.56736158 -27.25000000 25.87500000 C-30.15508313 21.10236343 -31.35756521 16.18699430 -30.73046875 10.59765625 C-29.08516604 4.38796538 -25.34342524 0.44604776 -20.00000000 -3.00000000 C-12.65023129 -5.43096799 -6.27704400 -4.29628789 0.00000000 0.00000000 Z M-25.50000000 5.56250000 C-27.62970224 10.44306763 -27.77268797 14.75508771 -27.00000000 20.00000000 C-24.84162421 24.47663127 -22.55029447 26.98940477 -18.00000000 29.00000000 C-12.27837433 30.51137282 -8.07712348 29.87593051 -3.00000000 27.00000000 C0.49678293 23.50321707 2.84941732 19.95588225 3.10546875 14.92968750 C2.85721553 9.50489482 1.39064213 6.26430333 -2.39062500 2.37500000 C-5.40638639 -0.20157283 -7.94428089 -0.85923745 -11.81250000 -1.37500000 C-17.4  -0.70883383 -21.53306149 1.49638803 -25.50000000 5.56250000 Z"
      fill="#003E66"
      transform="translate(1465.00,10.32)"/>
<path d="M0 0 C9.765625 -0.48828125 9.765625 -0.48828125 13 0 C15.43359375 2.328125 15.43359375 2.328125 17 5 C16.82090624 7.92519810 16.23471419 10.29585743 15.31250000 13.06250000 C14.87163560 15.79585931 15.84076717 17.54515402 17.00000000 20.00000000 C14.18750000 20.25000000 14.18750000 20.25000000 11.00000000 20.00000000 C9.12500000 18.12500000 9.12500000 18.12500000 8.00000000 16.00000000 C8.00000000 15.34000000 8.00000000 14.68000000 8.00000000 14.00000000 C7.01000000 14.00000000 6.02000000 14.00000000 5.00000000 14.00000000 C5.00000000 15.98000000 5.00000000 17.96000000 5.00000000 20.00000000 C3.35000000 20.00000000 1.70000000 20.00000000 0.00000000 20.00000000 C0.00000000 13.40000000 0.00000000 6.80000000 0.00000000 0.00000000 Z M5.00000000 5.00000000 C5.00000000 6.32000000 5.00000000 7.64000000 5.00000000 9.00000000 C6.65000000 9.00000000 8.30000000 9.00000000 10.00000000 9.00000000 C10.33000000 7.68000000 10.66000000 6.36000000 11.00000000 5.00000000 C9.02000000 5.00000000 7.04000000 5.00000000 5.00000000 5.00000000 Z"
      fill="#003E66"
      transform="translate(1445.00,14.32)"/>

</svg>
